<svg width="100" height="100" viewBox="0 0 100 100" fill="none" xmlns="http://www.w3.org/2000/svg">
<path d="M76.1573 57.5001V57.6575C76.1573 58.3797 76.0091 59.1204 75.7036 59.8612C74.9998 61.5834 73.5461 63.0741 71.3517 64.3427L69.4165 65.463L68.2498 66.139C66.1202 67.3612 63.5277 67.9815 60.4907 67.9723C57.4444 67.963 54.8424 67.3427 52.7035 66.1112L15.3702 44.5464L5.89804 39.0834C3.75915 37.8519 2.67582 36.3519 2.66656 34.5927C2.6573 32.8334 3.72212 31.3427 5.85175 30.1112L8.95358 28.3149C11.148 27.0556 13.7406 26.213 16.7128 25.8056C19.6943 25.3982 22.611 25.463 25.4628 25.9908C31.4998 27.1667 37.0924 28.6575 42.2498 30.4816C46.398 31.9445 50.2591 33.6204 53.8424 35.5186C54.7221 35.9723 55.5832 36.4445 56.4258 36.9353C56.685 37.0834 56.9443 37.2408 57.2035 37.3982C61.1758 39.7408 64.6387 42.3241 67.6017 45.1204C70.7591 48.1019 73.3517 51.3334 75.3795 54.8149C75.7684 55.5186 76.0092 56.2315 76.111 56.9445C76.1388 57.1297 76.148 57.3149 76.1573 57.5001Z" fill="#324D52" stroke="white" stroke-width="1.48148" stroke-linecap="round" stroke-linejoin="round"/>
<path d="M97.7777 25.787V25.8333C97.7777 29.3333 95.6481 32.2962 91.4072 34.75C91.222 34.8611 91.0368 34.9629 90.8424 35.0555C86.6943 37.3148 81.6943 38.4351 75.8795 38.4259C69.9999 38.4166 64.9629 37.2592 60.7684 34.9537C60.611 34.8703 60.4536 34.787 60.3055 34.6944C56.0184 32.2222 53.8609 29.2222 53.8424 25.7037C53.8239 22.1944 55.9443 19.2036 60.2128 16.7407C64.472 14.2777 69.648 13.0555 75.7405 13.0647C81.8331 13.074 87.0183 14.324 91.3054 16.7962C95.6018 19.2777 97.7499 22.2685 97.7777 25.787Z" fill="#324D52" stroke="white" stroke-width="1.48148" stroke-linecap="round" stroke-linejoin="round"/>
<path d="M97.7776 25.8332V44.3055C97.7961 47.824 95.6665 50.8055 91.4071 53.2684C87.2034 55.7036 82.0924 56.9258 76.1109 56.9444C76.009 56.2314 75.7682 55.5184 75.3793 54.8147C73.3515 51.3332 70.759 48.1018 67.6015 45.1203C64.6386 42.324 61.1756 39.7406 57.2034 37.3981C56.9441 37.2406 56.6849 37.0832 56.4256 36.9351C55.583 36.4444 54.7219 35.9721 53.8423 35.5184V25.7036C53.8608 29.2221 56.0182 32.2221 60.3052 34.6944C60.4534 34.7869 60.6108 34.8703 60.7682 34.9536C64.9627 37.2592 69.9998 38.4166 75.8794 38.4258C81.6942 38.4351 86.6941 37.3147 90.8423 35.0555C91.0367 34.9629 91.2219 34.861 91.4071 34.7499C95.6479 32.2962 97.7776 29.3332 97.7776 25.8332Z" fill="#324D52" stroke="white" stroke-width="1.48148" stroke-linecap="round" stroke-linejoin="round"/>
<path d="M76.1572 57.6573V76.2685C76.1479 76.9629 75.9998 77.6666 75.7035 78.3796C74.9998 80.1018 73.5461 81.5925 71.3517 82.861L68.2498 84.6573C66.1202 85.8796 63.5277 86.4999 60.4906 86.4907C57.4443 86.4814 54.8424 85.861 52.7035 84.6296L5.89798 57.6018C3.75909 56.3703 2.67576 54.8703 2.6665 53.111V34.5925C2.67576 36.3518 3.75909 37.8518 5.89798 39.0833L15.3702 44.5462L52.7035 66.111C54.8424 67.3425 57.4443 67.9629 60.4906 67.9722C63.5277 67.9814 66.1202 67.361 68.2498 66.1388L69.4165 65.4629L71.3517 64.3425C73.5461 63.074 74.9998 61.5833 75.7035 59.861C76.0091 59.1203 76.1572 58.3796 76.1572 57.6573Z" fill="#324D52" stroke="white" stroke-width="1.48148" stroke-linecap="round" stroke-linejoin="round"/>
</svg>
