<svg width="100" height="100" viewBox="0 0 100 100" fill="none" xmlns="http://www.w3.org/2000/svg">
<path d="M61.7721 66.2367V66.2543C61.7721 67.0262 61.2721 67.7016 60.2897 68.2718C59.2984 68.842 58.123 69.1314 56.7809 69.1227C55.5265 69.1227 54.4212 68.8771 53.4738 68.3683C53.3948 68.3332 53.3247 68.2981 53.2545 68.2542L34.0265 57.149H34.0089L3.84229 39.7279C2.84229 39.149 2.34227 38.4736 2.3335 37.6929C2.3335 36.9121 2.82472 36.2367 3.81595 35.6665C4.81595 35.0876 5.98263 34.8069 7.33351 34.8069C8.68438 34.8069 9.85985 35.0964 10.8598 35.6753L34.0089 49.0437L40.1669 52.6051L60.272 64.2104C60.658 64.4297 60.965 64.6665 61.2019 64.9121C61.5791 65.3157 61.7721 65.763 61.7721 66.2367Z" fill="#314B50" stroke="white" stroke-width="0.842105" stroke-linecap="round" stroke-linejoin="round"/>
<path d="M97.9737 16.772C97.9737 16.9123 97.9561 17.0614 97.921 17.2018L94.8947 31.6842L93.1228 40.1404C92.8333 41.3246 91.7105 42.1141 89.7456 42.5001C87.7894 42.8861 86.0698 42.6492 84.5961 41.8071L77.7188 37.8334L56.6751 49.9825C55.6751 50.5527 54.5083 50.8421 53.1574 50.8333C51.8065 50.8333 50.6399 50.5439 49.6399 49.9649L47.1838 48.5526L35.5172 41.8158C34.5172 41.2368 34.0171 40.5614 34.0083 39.7807C34.0083 39 34.4995 38.3247 35.4995 37.7545L48.1487 30.4474L56.5434 25.6053L49.6575 21.6317C48.6926 21.0703 48.1838 20.4475 48.1487 19.772V19.5614C48.1663 19.272 48.2715 18.965 48.4558 18.6579C49.1224 17.5264 50.4821 16.8772 52.5347 16.7106L92.2807 13.9386C93.0965 13.8685 93.8772 13.9123 94.6052 14.0702C95.3421 14.2193 95.9737 14.4562 96.5 14.7544C97.0351 15.0614 97.4298 15.4299 97.693 15.8509C97.8859 16.1404 97.9737 16.4562 97.9737 16.772Z" fill="#314B50" stroke="white" stroke-width="0.842105" stroke-linecap="round" stroke-linejoin="round"/>
<path d="M61.7721 66.2543V83.7806C61.7809 84.5613 61.2809 85.2367 60.2897 85.8157C59.2984 86.3859 58.123 86.6753 56.7809 86.6666C55.43 86.6666 54.2545 86.3771 53.2545 85.7981L3.84229 57.2718C2.84229 56.6929 2.34227 56.0174 2.3335 55.2367V37.6929C2.34227 38.4736 2.84229 39.149 3.84229 39.728L34.0089 57.1402V57.3244C34.0089 57.263 34.009 57.2104 34.0265 57.149L53.2545 68.2543C53.3247 68.2981 53.3948 68.3332 53.4738 68.3683C54.4212 68.8771 55.5265 69.1227 56.7809 69.1227C58.123 69.1315 59.2984 68.842 60.2897 68.2718C61.2721 67.7016 61.7721 67.0262 61.7721 66.2543Z" fill="#314B50" stroke="white" stroke-width="0.842105" stroke-linecap="round" stroke-linejoin="round"/>
<path d="M77.7188 37.8333V55.3771L61.2013 64.9122C60.9644 64.6666 60.6574 64.4297 60.2715 64.2104L40.1663 52.6052L34.0083 49.0438V39.7806C34.0171 40.5613 34.5172 41.2368 35.5172 41.8157L47.1838 48.5526L49.6399 49.9648C50.6399 50.5438 51.8065 50.8333 53.1574 50.8333C54.5083 50.842 55.6751 50.5526 56.6751 49.9824L77.7188 37.8333Z" fill="#314B50" stroke="white" stroke-width="0.842105" stroke-linecap="round" stroke-linejoin="round"/>
<path d="M56.5442 25.6053L48.1494 30.4474V19.772C48.1845 20.4474 48.6933 21.0702 49.6582 21.6316L56.5442 25.6053Z" fill="#314B50" stroke="white" stroke-width="0.842105" stroke-linecap="round" stroke-linejoin="round"/>
<path d="M97.9735 16.772V34.3246C97.9735 34.4649 97.9559 34.6053 97.9209 34.7456L93.1226 57.6842C92.8331 58.8684 91.7103 59.6579 89.7454 60.0439C87.7893 60.4298 86.0696 60.193 84.5959 59.3509L77.7188 55.3772V37.8333L84.5959 41.807C86.0696 42.6491 87.7893 42.886 89.7454 42.5C91.7103 42.1141 92.8331 41.3246 93.1226 40.1404L94.8945 31.6842L97.9209 17.2018C97.9559 17.0614 97.9735 16.9123 97.9735 16.772Z" fill="#314B50" stroke="white" stroke-width="0.842105" stroke-linecap="round" stroke-linejoin="round"/>
<path d="M97.9727 16.7718V16.6665V16.7718Z" fill="#314B50"/>
<path d="M97.9727 16.7718V16.6665" stroke="white" stroke-width="0.842105" stroke-linecap="round" stroke-linejoin="round"/>
</svg>
