<svg width="100" height="100" viewBox="0 0 100 100" fill="none" xmlns="http://www.w3.org/2000/svg">
<path d="M56.4297 54.8232V70.4482C56.4297 70.9951 56.3126 71.542 56.086 72.0967C55.5626 73.3779 54.4923 74.4873 52.8594 75.4248L50.5547 76.7529C48.9688 77.667 47.0469 78.1279 44.7891 78.1201C42.5235 78.1201 40.6016 77.6514 39.0079 76.7373L4.25005 56.667C2.6563 55.7529 1.85938 54.6357 1.85156 53.3311V37.7061C1.85156 39.0107 2.6563 40.1279 4.25005 41.042L13.9609 46.6514L39.0079 61.1123C40.6016 62.0264 42.5235 62.4951 44.7891 62.4951C46.8907 62.5029 48.711 62.1045 50.2266 61.2998C50.336 61.2529 50.4454 61.1904 50.5547 61.1279L52.8594 59.7998C54.4923 58.8623 55.5626 57.7529 56.086 56.4717C56.1251 56.3779 56.1641 56.2764 56.1876 56.1826C56.3516 55.7295 56.4297 55.2764 56.4297 54.8232Z" fill="#324D52" stroke="white" stroke-width="1.25" stroke-linecap="round" stroke-linejoin="round"/>
<path d="M56.4298 54.698V54.823C56.4298 55.2761 56.3516 55.7292 56.1876 56.1823C56.1641 56.2761 56.1251 56.3776 56.086 56.4714C55.5626 57.7526 54.4923 58.862 52.8594 59.7995L50.5548 61.1276C50.4455 61.1901 50.336 61.2526 50.2266 61.2995C48.711 62.1042 46.8908 62.5026 44.7892 62.4948C42.5236 62.4948 40.6016 62.0261 39.0079 61.112L13.961 46.6511L4.25011 41.0417C2.65636 40.1276 1.85943 39.0105 1.85162 37.7058C1.84381 36.4011 2.63289 35.2917 4.21101 34.3776L6.51566 33.0495C8.1485 32.1042 10.0704 31.487 12.2813 31.1823C14.4923 30.8776 16.6563 30.9245 18.7813 31.3151C23.2579 32.1901 27.4141 33.2995 31.2501 34.6511C34.3204 35.7448 37.1876 36.987 39.8516 38.3933C40.5079 38.7292 41.1485 39.0808 41.7735 39.448C42.4376 39.8308 43.0783 40.2214 43.7033 40.6198C46.0939 42.1355 48.211 43.7683 50.0704 45.5261C52.4219 47.737 54.3438 50.1355 55.8516 52.7214C56.211 53.3776 56.4063 54.0339 56.4298 54.698Z" fill="#324D52" stroke="white" stroke-width="1.25" stroke-linecap="round" stroke-linejoin="round"/>
<path d="M72.4767 31.167V31.206C72.4767 33.7998 70.8986 36.003 67.7501 37.8233C66.9845 38.2608 66.1876 38.6514 65.3439 38.9795C62.6954 40.042 59.6486 40.5655 56.2189 40.5577C52.7502 40.5577 49.6642 40.0029 46.9845 38.917C46.172 38.5889 45.3907 38.2061 44.6564 37.7842C41.4689 35.9483 39.8673 33.7217 39.8517 31.1045C39.8361 28.4951 41.4143 26.2764 44.5783 24.4483C47.7502 22.6202 51.5939 21.7139 56.1174 21.7217C60.6408 21.7295 64.4923 22.6514 67.6798 24.4873C70.8673 26.3311 72.4689 28.5576 72.4767 31.167Z" fill="#324D52" stroke="white" stroke-width="1.25" stroke-linecap="round" stroke-linejoin="round"/>
<path d="M72.4766 31.2058V46.7917C72.4844 47.4949 72.3672 48.1746 72.1328 48.823H70.125C69.0625 48.8308 68.125 49.0652 67.3125 49.5339C66.4922 50.0027 66.0859 50.5496 66.0937 51.1589V54.2917C63.328 55.5339 60.1015 56.1667 56.4296 56.1824V54.698C56.4062 54.0339 56.2109 53.3777 55.8515 52.7214C54.3437 50.1355 52.4218 47.7371 50.0702 45.5261C48.2109 43.7683 46.0938 42.1355 43.7031 40.6199C43.0781 40.2214 42.4374 39.8308 41.7734 39.448C41.1484 39.0808 40.5078 38.7292 39.8516 38.3933V31.1042C39.8672 33.7214 41.4688 35.948 44.6563 37.7839C45.3906 38.2058 46.1719 38.5886 46.9844 38.9167C49.6641 40.0027 52.75 40.5496 56.2188 40.5574C59.6484 40.5652 62.6953 40.0417 65.3438 38.9792C66.1875 38.6511 66.9843 38.2605 67.7499 37.823C70.8984 36.0027 72.4766 33.7996 72.4766 31.2058Z" fill="#324D52" stroke="white" stroke-width="1.25" stroke-linecap="round" stroke-linejoin="round"/>
<path d="M78.1571 53.5574V69.1824L70.1489 69.1199C69.0864 69.1199 68.149 68.9011 67.3287 68.448C66.5084 68.0027 66.0942 67.448 66.0942 66.7839V51.1589C66.0942 51.823 66.5084 52.3777 67.3287 52.823C67.5943 52.9714 67.8755 53.0964 68.1724 53.1902C68.7739 53.3933 69.438 53.4949 70.1489 53.4949L78.1571 53.5574Z" fill="#EF3414" stroke="white" stroke-width="1.25" stroke-linecap="round" stroke-linejoin="round"/>
<path d="M98.3602 51.1748V66.7998C98.3602 67.4639 97.9687 68.0264 97.1719 68.4873C96.3828 68.9404 95.407 69.167 94.2586 69.167L86.3445 69.1514V58.1983L86.3125 53.5264L94.2586 53.542C95.407 53.542 96.3828 53.3154 97.1719 52.8623C97.9687 52.4014 98.3602 51.8389 98.3602 51.1748Z" fill="#EF3414" stroke="white" stroke-width="1.25" stroke-linecap="round" stroke-linejoin="round"/>
<path d="M98.3592 51.175C98.3592 51.8391 97.9685 52.4016 97.1717 52.8625C96.3826 53.3157 95.406 53.5422 94.2576 53.5422L86.3123 53.5266L86.3435 58.1985C86.3435 58.3079 86.3357 58.4094 86.3123 58.511C86.2654 58.7297 86.1795 58.925 86.0388 59.1125C85.8435 59.386 85.5545 59.6282 85.156 59.8391C84.367 60.2688 83.3904 60.4797 82.242 60.4797C81.1326 60.4485 80.1795 60.2219 79.3826 59.7844C78.9373 59.5422 78.617 59.2688 78.4295 58.9563C78.2654 58.7063 78.1873 58.4329 78.1873 58.136L78.156 53.5579L70.1481 53.4954C69.4371 53.4954 68.7731 53.3938 68.1715 53.1907C67.8746 53.0969 67.5934 52.9719 67.3277 52.8235C66.5074 52.3782 66.0934 51.8235 66.0934 51.1594C66.0856 50.55 66.4918 50.0032 67.3121 49.5344C68.1246 49.0657 69.0621 48.8313 70.1246 48.8313H72.1325L78.1326 48.8079L78.109 44.2219C78.1012 43.6125 78.4998 43.0735 79.2888 42.6204C80.0779 42.1594 81.031 41.9172 82.1404 41.8938C83.2888 41.8938 84.2654 42.1282 85.0623 42.5891C85.8592 43.05 86.2576 43.6125 86.2654 44.2766L86.2888 48.8625L94.3045 48.8313C95.406 48.8079 96.3592 49.0266 97.156 49.4875C97.9529 49.9485 98.3513 50.511 98.3592 51.175Z" fill="#EF3414" stroke="white" stroke-width="1.25" stroke-linecap="round" stroke-linejoin="round"/>
<path d="M86.3437 69.1514H86.3125L86.3437 73.8232C86.3437 74.4873 85.9531 75.0342 85.1562 75.4639C84.3672 75.8936 83.3906 76.1045 82.2422 76.1045C81.1328 76.0732 80.1797 75.8467 79.3828 75.4092C78.5859 74.9795 78.1875 74.4326 78.1875 73.7607L78.1562 69.1826V53.5576L78.1875 58.1357C78.1875 58.4326 78.2656 58.7061 78.4297 58.9561C78.6172 59.2686 78.9375 59.542 79.3828 59.7842C80.1797 60.2217 81.1328 60.4482 82.2422 60.4795C83.3906 60.4795 84.3672 60.2686 85.1562 59.8389C85.5547 59.6279 85.8437 59.3857 86.0391 59.1123C86.1797 58.9248 86.2656 58.7295 86.3125 58.5107C86.3359 58.4092 86.3437 58.3076 86.3437 58.1982V69.1514Z" fill="#EF3414" stroke="white" stroke-width="1.25" stroke-linecap="round" stroke-linejoin="round"/>
<path d="M86.3447 73.8232V69.1514V73.8232Z" fill="#324D52"/>
<path d="M86.3447 73.8232V69.1514" stroke="white" stroke-width="1.25" stroke-linecap="round" stroke-linejoin="round"/>
<path d="M56.4302 70.5889V70.4482V70.5889Z" fill="#324D52"/>
<path d="M56.4302 70.5889V70.4482" stroke="white" stroke-width="1.25" stroke-linecap="round" stroke-linejoin="round"/>
<path d="M56.4302 54.8232V54.6982V54.8232Z" fill="#324D52"/>
<path d="M56.4302 54.8232V54.6982" stroke="white" stroke-width="1.25" stroke-linecap="round" stroke-linejoin="round"/>
</svg>
